<?xml version="1.0" standalone="no"?>
<!DOCTYPE svg PUBLIC "-//W3C//DTD SVG 20010904//EN"
 "http://www.w3.org/TR/2001/REC-SVG-20010904/DTD/svg10.dtd">
<svg version="1.0" xmlns="http://www.w3.org/2000/svg"
 width="40.000000pt" height="40.000000pt" viewBox="0 0 40.000000 40.000000"
 preserveAspectRatio="xMidYMid meet">

<g transform="translate(0.000000,40.000000) scale(0.100000,-0.100000)"
fill="#000000" stroke="none">
<path d="M120 210 c0 -133 1 -140 20 -140 18 0 20 7 20 65 l0 65 30 0 30 0 0
-66 c0 -62 1 -65 23 -62 21 3 22 6 25 141 l3 137 -27 0 c-25 0 -26 -1 -22 -65
l3 -66 -30 3 c-29 3 -30 4 -33 66 -3 54 -6 62 -22 62 -19 0 -20 -8 -20 -140z"/>
</g>
</svg>
